<svg width="123" height="100" viewBox="0 0 123 100" fill="none" xmlns="http://www.w3.org/2000/svg">
    <path d="M103 0.789062H19.1499C17.2299 0.789062 15.6699 2.34906 15.6699 4.26906V61.8591C15.6699 63.7791 17.2299 65.3391 19.1499 65.3391H103C104.92 65.3391 106.48 63.7791 106.48 61.8591V4.26906C106.48 2.34906 104.93 0.789062 103 0.789062Z" fill="#B7D5E5"/>
    <path d="M101.75 59.1997H20.3999L21.3599 6.92969H100.79L101.75 59.1997Z" fill="url(#paint0_radial_1394_0)"/>
    <path d="M118.09 99.8184H4.58989C4.15989 99.8184 3.75989 99.7884 3.38989 99.7284C0.509894 99.2884 -0.820105 95.5484 0.889895 92.9884L1.27989 92.3984H120.87L121.27 92.9984C123.13 95.7784 121.39 99.7584 118.23 99.8084C118.19 99.8184 118.14 99.8184 118.09 99.8184Z" fill="#2F7889"/>
    <path d="M103.84 66.4102H17.6002C16.3302 66.4102 15.0602 67.1802 14.3502 68.4002L0.350193 93.8801C-0.239807 94.7601 0.340193 96.0002 1.34019 96.0002H120.8C121.8 96.0002 122.38 94.7601 121.79 93.8801L107.08 68.2502C106.38 67.1702 105.11 66.4102 103.84 66.4102V66.4102Z" fill="#EEEEEE"/>
    <path d="M83.3598 91.5191H38.7998L41.6498 83.5391H80.7198L83.3598 91.5191Z" fill="#B7D5E5"/>
    <g opacity="0.57">
        <path opacity="0.57" d="M69.69 70.8406L69.42 68.6406H65.98L66.11 70.8406H69.69Z" fill="#69A1BA"/>
        <path opacity="0.57" d="M64.1403 70.8406L64.0003 68.6406H60.5503V70.8406H64.1403Z" fill="#69A1BA"/>
        <path opacity="0.57" d="M90.61 70.8406L89.8 68.6406H86.54L87.22 70.8406H90.61Z" fill="#69A1BA"/>
        <path opacity="0.57" d="M85.3604 70.8406L84.6804 68.6406H81.3604L81.9004 70.8406H85.3604Z" fill="#69A1BA"/>
        <path opacity="0.57" d="M80.18 70.8406L79.64 68.6406H76.27L76.68 70.8406H80.18Z" fill="#69A1BA"/>
        <path opacity="0.57" d="M99.1102 70.8406L98.1602 68.6406H91.4502L92.2702 70.8406H99.1102Z" fill="#69A1BA"/>
        <path opacity="0.57" d="M74.61 70.8406L74.2 68.6406H70.79L71.07 70.8406H74.61Z" fill="#69A1BA"/>
        <path opacity="0.57" d="M30.7601 70.8406L31.4401 68.6406H28.1801L27.3701 70.8406H30.7601Z" fill="#69A1BA"/>
        <path opacity="0.57" d="M47.5102 70.8406L47.7802 68.6406H44.3702L43.9702 70.8406H47.5102Z" fill="#69A1BA"/>
        <path opacity="0.57" d="M36.3499 70.8406L36.8899 68.6406H33.5699L32.8999 70.8406H36.3499Z" fill="#69A1BA"/>
        <path opacity="0.57" d="M25.1701 70.8406L25.9801 68.6406H22.8001L21.8501 70.8406H25.1701Z" fill="#69A1BA"/>
        <path opacity="0.57" d="M41.9302 70.8406L42.3402 68.6406H38.9702L38.4302 70.8406H41.9302Z" fill="#69A1BA"/>
        <path opacity="0.57" d="M53.0803 70.8406L53.2203 68.6406H49.7803L49.5103 70.8406H53.0803Z" fill="#69A1BA"/>
        <path opacity="0.57" d="M58.6501 70.8406V68.6406H55.2001L55.0601 70.8406H58.6501Z" fill="#69A1BA"/>
        <g opacity="0.57">
            <path opacity="0.57" d="M80.7803 79.7305H41.3604L40.6104 81.9305H81.6904L80.7803 79.7305Z" fill="#69A1BA"/>
            <path opacity="0.57" d="M99.1499 81.9305L97.9399 79.7305H104.48L105.43 81.9305H99.1499Z" fill="#69A1BA"/>
            <path opacity="0.57" d="M83.7499 81.9305L82.9199 79.7305H89.2099L90.1699 81.9305H83.7499Z" fill="#69A1BA"/>
            <path opacity="0.57" d="M92.3902 81.9305L91.4302 79.7305H95.7402L96.8402 81.9305H92.3902Z" fill="#69A1BA"/>
            <path opacity="0.57" d="M22.6701 81.9305L23.8801 79.7305H17.3401L16.3901 81.9305H22.6701Z" fill="#69A1BA"/>
            <path opacity="0.57" d="M38.0699 81.9305L38.8999 79.7305H32.6099L31.6499 81.9305H38.0699Z" fill="#69A1BA"/>
            <path opacity="0.57" d="M29.4202 81.9305L30.3902 79.7305H26.0802L24.9702 81.9305H29.4202Z" fill="#69A1BA"/>
        </g>
        <g opacity="0.57">
            <path opacity="0.57" d="M26.7102 74.5103L27.5302 72.3203H20.8602L19.9102 74.5103H26.7102Z" fill="#69A1BA"/>
            <path opacity="0.57" d="M94.9501 74.5103L94.1401 72.3203H100.8L101.75 74.5103H94.9501Z" fill="#69A1BA"/>
            <path opacity="0.57" d="M93.2499 74.5103L92.2899 72.3203H88.4399L89.2599 74.5103H93.2499Z" fill="#69A1BA"/>
            <path opacity="0.57" d="M83.2301 74.5103L82.5801 72.3203H86.4301L87.2101 74.5103H83.2301Z" fill="#69A1BA"/>
            <path opacity="0.57" d="M77.1902 74.5103L76.7202 72.3203H80.5702L81.1702 74.5103H77.1902Z" fill="#69A1BA"/>
            <path opacity="0.57" d="M71.1501 74.5103L70.8701 72.3203H74.7101L75.1401 74.5103H71.1501Z" fill="#69A1BA"/>
            <path opacity="0.57" d="M65.1203 74.5103L65.0103 72.3203H68.8603L69.1003 74.5103H65.1203Z" fill="#69A1BA"/>
            <path opacity="0.57" d="M59.0801 74.5103L59.1501 72.3203H63.0001L63.0601 74.5103H59.0801Z" fill="#69A1BA"/>
            <path opacity="0.57" d="M53.04 74.5103L53.29 72.3203H57.14L57.03 74.5103H53.04Z" fill="#69A1BA"/>
            <path opacity="0.57" d="M47.0103 74.5103L47.4303 72.3203H51.2803L50.9903 74.5103H47.0103Z" fill="#69A1BA"/>
            <path opacity="0.57" d="M40.9702 74.5103L41.5702 72.3203H45.4202L44.9502 74.5103H40.9702Z" fill="#69A1BA"/>
            <path opacity="0.57" d="M34.9302 74.5103L35.7102 72.3203H39.5602L38.9202 74.5103H34.9302Z" fill="#69A1BA"/>
            <path opacity="0.57" d="M28.9004 74.5103L29.8504 72.3203H33.7004L32.8804 74.5103H28.9004Z" fill="#69A1BA"/>
        </g>
        <g opacity="0.57">
            <path opacity="0.57" d="M26.7001 78.2195L27.5101 76.0195H18.7601L17.8101 78.2195H26.7001Z" fill="#69A1BA"/>
            <path opacity="0.57" d="M92.8702 78.2195L92.1002 76.0195H87.9302L88.5702 78.2195H92.8702Z" fill="#69A1BA"/>
            <path opacity="0.57" d="M81.9302 78.2195L81.4502 76.0195H85.6102L86.2302 78.2195H81.9302Z" fill="#69A1BA"/>
            <path opacity="0.57" d="M75.28 78.2195L74.96 76.0195H79.13L79.58 78.2195H75.28Z" fill="#69A1BA"/>
            <path opacity="0.57" d="M68.6402 78.2195L68.4702 76.0195H72.6402L72.9402 78.2195H68.6402Z" fill="#69A1BA"/>
            <path opacity="0.57" d="M62.0002 78.2195L61.9902 76.0195H66.1502L66.3002 78.2195H62.0002Z" fill="#69A1BA"/>
            <path opacity="0.57" d="M55.3599 78.2195L55.4999 76.0195H59.6699L59.6599 78.2195H55.3599Z" fill="#69A1BA"/>
            <path opacity="0.57" d="M48.71 78.2195L49.01 76.0195H53.18L53.01 78.2195H48.71Z" fill="#69A1BA"/>
            <path opacity="0.57" d="M42.0698 78.2195L42.5298 76.0195H46.6898L46.3698 78.2195H42.0698Z" fill="#69A1BA"/>
            <path opacity="0.57" d="M35.4302 78.2195L36.0402 76.0195H40.2102L39.7302 78.2195H35.4302Z" fill="#69A1BA"/>
            <path opacity="0.57" d="M28.7803 78.2195L29.5503 76.0195H33.7203L33.0903 78.2195H28.7803Z" fill="#69A1BA"/>
            <path opacity="0.57" d="M94.4699 78.2195L93.6499 76.0195H102.4L103.35 78.2195H94.4699Z" fill="#69A1BA"/>
        </g>
    </g>
    <path d="M121.73 93.8786L107.39 68.3986C106.68 67.3286 105.41 66.5586 104.14 66.5586C104.14 66.5586 105.36 67.6586 105.73 68.1886L118.32 91.7786C118.88 92.7986 118.14 94.0386 116.98 94.0386H4.95988C3.80988 94.0386 3.06988 92.8086 3.60988 91.7986L15.5599 68.6186C15.9099 68.0186 17.4399 66.6286 17.4399 66.6286H16.9899C15.7199 66.6286 14.4499 67.3986 13.7399 68.6186L0.279881 93.8786C-0.310119 94.7586 0.269881 95.9986 1.26988 95.9986H120.73C121.74 95.9986 122.32 94.7586 121.73 93.8786V93.8786Z" fill="#B7D5E5"/>
    <path d="M22.9702 4.01953H36.1802" stroke="#EEEEEE" stroke-width="2.936" stroke-miterlimit="10" stroke-linecap="round"/>
    <path d="M106.37 6.10879C106.37 5.06879 105.36 4.98879 105.36 6.21879V62.0188C105.36 63.3588 104.27 64.4488 102.93 64.4488H19.0799C17.7399 64.4488 16.6499 63.3588 16.6499 62.0188V6.21879C16.6499 4.98879 15.6399 5.06879 15.6399 6.10879L14.6899 62.0188C14.6899 64.4388 15.9299 66.4088 19.0799 66.4088H102.93C105.66 66.4088 107.32 64.4388 107.32 62.0188L106.37 6.10879V6.10879Z" fill="#75A7BC"/>
    <defs>
        <radialGradient id="paint0_radial_1394_0" cx="0" cy="0" r="1" gradientUnits="userSpaceOnUse" gradientTransform="translate(45.4079 -20.0684) scale(75.465 81.8267)">
            <stop stop-color="#2F7889"/>
            <stop offset="1" stop-color="#424242"/>
        </radialGradient>
    </defs>
</svg>
