<svg width="128" height="128" viewBox="0 0 128 128" fill="none" xmlns="http://www.w3.org/2000/svg">
    <path d="M69.0899 4.24178C68.0099 5.20178 59.6099 21.8718 59.6099 21.8718L53.3599 47.0818L77.6799 44.8518C77.6799 44.8518 97.9099 7.23178 98.3199 6.36178C99.0499 4.78178 99.4399 4.13178 96.6499 4.13178C93.8599 4.12178 70.0999 3.34178 69.0899 4.24178V4.24178Z" fill="#176CC7"/>
    <path d="M81.6799 43.2908C80.4699 42.6408 44.8299 42.0808 43.9899 43.2908C43.2299 44.3908 43.6599 50.1608 43.9499 50.8508C44.4699 52.0508 55.9199 56.7008 55.9199 56.7008V59.5908C55.9199 59.5908 56.6999 59.9108 63.3799 59.9108C70.0599 59.9108 71.3899 59.5708 71.3899 59.5708L71.4399 56.7908C71.4399 56.7908 81.3799 51.6708 81.8999 50.9608C82.3599 50.3708 82.8899 43.9408 81.6799 43.2908ZM71.3399 52.4308C71.3399 52.4308 71.4799 51.0508 70.7899 50.7108C70.0999 50.3608 58.1699 50.4208 57.2299 50.4708C56.2899 50.5208 56.2899 52.2008 56.2899 52.2008L48.8199 48.2508L48.6899 46.9308L76.6299 47.0808L76.6899 48.8608L71.3399 52.4308V52.4308Z" fill="#FCC11A"/>
    <path d="M59.0401 51.8398C58.1001 51.8398 57.3901 52.8998 57.3901 54.5798C57.3901 56.1598 57.9301 57.4598 59.1201 57.3898C60.2501 57.3298 60.7901 55.8998 60.7101 54.5598C60.6101 52.9898 60.2301 51.8398 59.0401 51.8398V51.8398Z" fill="#FDFFFF"/>
    <path d="M29.3101 92.089C29.3101 116.049 51.0201 126.019 65.4301 125.589C82.2201 125.089 100.28 112.349 98.7901 89.489C97.3901 68.039 79.1001 57.799 63.3201 57.919C44.9801 58.049 29.3101 71.159 29.3101 92.089V92.089Z" fill="#F8932A"/>
    <path d="M64.5199 121.289C64.2699 121.289 64.0099 121.289 63.7599 121.279C56.2599 121.029 48.6399 118.199 43.2199 112.949C37.4199 107.329 33.8399 100.219 33.8199 92.0492C33.7699 70.5892 52.1599 62.6992 63.9899 62.6992H64.0899C80.1199 62.7692 93.9699 74.7492 94.3299 91.6392C94.4899 99.1592 91.4099 107.119 85.3699 113.059C79.7399 118.589 71.4299 121.289 64.5199 121.289V121.289Z" fill="#FCC11A"/>
    <path d="M25.5102 3.72042C24.8802 4.30042 48.9702 47.2004 48.9702 47.2004C48.9702 47.2004 53.0102 47.7204 62.0302 47.8004C71.0502 47.8804 75.5202 47.2804 75.5202 47.2804C75.5202 47.2804 56.7902 4.15042 55.6702 3.72042C55.1202 3.50042 47.7002 3.42042 40.4502 3.34042C33.1902 3.25042 26.1102 3.16042 25.5102 3.72042V3.72042Z" fill="#2E9DF4"/>
    <path d="M52.2898 67.3509C50.8298 66.1009 43.3998 69.8709 38.1798 78.5009C34.6798 84.2909 34.3798 91.7009 36.6098 91.8209C38.8398 91.9409 38.8098 84.6109 43.6598 78.2009C49.5198 70.4909 54.3998 69.1609 52.2898 67.3509Z" fill="#FEFFFA"/>
    <path d="M64.3702 66.8984C62.4202 66.8984 59.3802 79.7884 56.9902 81.3784C54.6002 82.9684 42.2202 81.4484 42.0802 83.1884C41.9402 84.9284 51.2702 92.1684 52.3602 94.8384C53.4502 97.5084 47.6502 109.458 49.2502 110.618C50.8402 111.778 60.8302 103.448 64.1602 103.448C67.6302 103.448 76.5702 112.338 78.0602 111.118C79.6302 109.838 74.5902 98.1584 75.3802 95.4784C76.1802 92.7984 87.0302 87.0784 86.6002 84.4784C86.1702 81.8684 73.5702 83.8284 71.2502 81.6584C68.9302 79.4884 66.4702 66.8984 64.3702 66.8984Z" fill="#F8932A"/>
</svg>
