<svg width="128" height="128" viewBox="0 0 128 128" fill="none" xmlns="http://www.w3.org/2000/svg">
    <path d="M56.4798 35.921C57.0798 33.231 56.6198 34.511 52.7498 28.851C49.2698 23.771 49.9898 16.551 45.8698 12.961C43.3398 10.761 40.1698 8.29102 28.3598 14.231C24.2598 16.291 16.0698 23.081 6.78983 26.191C-0.68017 28.691 3.45983 31.711 5.04983 32.271C10.7098 34.261 18.1998 29.961 18.1998 29.961C18.1998 29.961 7.45983 36.981 13.7698 38.641C18.8898 39.991 25.3398 33.841 25.3398 33.841C25.3398 33.841 19.0198 40.541 24.1898 42.261C27.7398 43.441 34.7898 36.701 34.7898 36.701C34.7898 36.701 29.8598 43.551 32.2398 45.001C35.8598 47.201 41.7898 41.531 41.7898 41.531C41.7898 41.531 37.0798 48.411 39.5398 49.531C43.2198 51.211 48.6798 46.491 48.6798 46.491C48.6798 46.491 55.3998 40.731 56.4798 35.921V35.921Z" fill="#E0E0E0"/>
    <path d="M35.68 13.7617C35.68 13.7617 29.24 17.5417 26.89 20.5817C26.58 20.9817 24.65 22.9117 26.35 24.0217C26.78 24.3017 28.06 24.1217 28.82 23.6617C32.28 21.5617 38.4 16.5817 39.07 16.8417C39.74 17.1017 33.6 21.1417 31.62 26.0317C30.88 27.8717 32.32 29.1917 36.07 26.9817C40.15 24.5817 43.66 20.3517 44.25 20.3717C44.25 20.3717 42.61 23.2317 40.51 25.4917C38.37 27.8017 36.86 30.1517 38.44 30.8917C40.43 31.8317 44.73 29.2817 44.73 29.2817C44.73 29.2817 41.99 32.6017 38.44 33.3517C37.19 33.6217 36.21 33.4517 35.61 32.7717C34.7 31.7317 35.05 30.1317 35.05 30.1317C33.16 30.8817 29.9 32.1017 27.96 30.4617C26.45 29.1817 28.51 25.4317 28.51 25.4317C28.51 25.4317 24.86 27.4517 22.78 26.8417C21.7 26.5217 20.05 24.9617 22.46 21.6517C26.26 16.4817 35.68 13.7617 35.68 13.7617V13.7617Z" fill="#BDBDBD"/>
    <path d="M43.3799 50.1303C47.5499 44.7103 51.7199 39.3003 55.8899 33.8803L55.5299 32.3203C55.3499 31.7703 53.7099 31.7003 51.4399 33.0103C49.9199 33.8903 47.1299 37.0503 45.3399 35.3103C44.0999 34.1103 47.6599 29.8203 47.6599 29.8203C47.1699 29.8303 43.2199 32.4703 42.5899 35.1203C42.0499 37.3703 42.5699 40.0103 47.6499 37.4403C47.7999 37.3603 47.9599 37.2703 48.1099 37.1803C47.4699 38.1903 46.8899 39.2503 46.3999 40.3303C44.9799 43.4503 44.1399 46.7903 43.3799 50.1303V50.1303Z" fill="#BDBDBD"/>
    <path d="M81.3901 11.1289L81.4601 11.1789Z" fill="url(#paint0_linear_9777_50444)"/>
    <path d="M87.1299 70.8306C77.0799 85.8906 68.6299 102.481 49.4099 107.561C49.2099 107.611 48.9999 107.551 48.8599 107.401L17.4599 72.7506C16.5299 71.7206 16.9899 70.0906 18.3099 69.6606C31.2199 65.4206 39.2799 55.3206 46.4599 44.5506C56.3599 29.7206 64.8399 13.4006 83.4499 8.05063C84.1599 7.78063 84.9899 7.95063 85.5299 8.54063C89.6999 13.1406 121.15 43.0806 121.2 43.1406C121.22 43.1506 94.8399 59.2706 87.1299 70.8306Z" fill="#66BB6A"/>
    <path d="M58.1099 77.7102C57.4299 77.0302 56.6199 76.6902 55.6799 76.7002C54.7399 76.7102 53.5199 77.0901 52.0099 77.8401C49.9599 78.9301 48.1799 79.4402 46.6899 79.3902C45.1999 79.3302 43.8599 78.7102 42.6799 77.5202C41.4699 76.3102 40.8299 74.9602 40.7699 73.4802C40.6999 72.0002 41.2099 70.5702 42.2999 69.1902L40.3899 67.2702C40.2551 67.1326 40.1797 66.9477 40.1797 66.7552C40.1797 66.5626 40.2551 66.3777 40.3899 66.2402L41.0099 65.6202C41.2899 65.3402 41.7499 65.3402 42.0399 65.6202L43.9599 67.5502C45.3699 66.4802 46.8599 66.0402 48.4199 66.2202C49.8199 66.3902 51.1999 67.0802 52.5499 68.3202C52.8099 68.5602 52.8099 68.9802 52.5599 69.2302L51.4199 70.3702C51.1799 70.6102 50.7899 70.6102 50.5399 70.3802C49.6399 69.6002 48.7099 69.1502 47.7599 69.0502C46.6499 68.9302 45.6699 69.2902 44.8299 70.1302C43.9499 71.0102 43.4999 71.9102 43.4899 72.8202C43.4799 73.7402 43.8799 74.6102 44.6899 75.4202C45.4399 76.1802 46.2899 76.5302 47.2299 76.4902C48.1699 76.4502 49.3799 76.0502 50.8799 75.2902C52.3799 74.5302 53.6499 74.0602 54.7299 73.8702C55.7999 73.6802 56.7799 73.7302 57.6599 74.0102C58.5399 74.3002 59.3699 74.8302 60.1499 75.6102C61.3899 76.8602 62.0199 78.2402 62.0299 79.7502C62.0399 81.2602 61.4399 82.7602 60.2199 84.2502L61.8199 85.8502C62.0999 86.1302 62.0999 86.5901 61.8199 86.8801L61.2099 87.4902C60.9299 87.7702 60.4699 87.7702 60.1799 87.4902L58.5799 85.8902C57.0799 87.1302 55.5099 87.7202 53.8799 87.6402C52.4299 87.5702 51.0399 86.9502 49.7199 85.7802C49.6565 85.7228 49.6057 85.653 49.5706 85.5751C49.5356 85.4971 49.517 85.4128 49.516 85.3273C49.5151 85.2419 49.5318 85.1572 49.5652 85.0785C49.5985 84.9998 49.6478 84.9289 49.7099 84.8702L50.8699 83.7202C51.0999 83.4902 51.4699 83.4702 51.7199 83.6802C52.6099 84.4502 53.5299 84.8402 54.4799 84.8602C55.5699 84.8802 56.6099 84.3902 57.5999 83.4002C58.5699 82.4402 59.0999 81.4402 59.1899 80.4302C59.2599 79.4202 58.9099 78.5102 58.1099 77.7102V77.7102Z" fill="white"/>
    <path d="M60.67 84.7386L58.57 85.9086L42.34 69.2486L41.79 68.6886L43.96 67.5586L60.19 84.2586L60.67 84.7386Z" fill="white"/>
    <path opacity="0.5" d="M75.88 59.9689C83.8439 59.9689 90.3 53.5129 90.3 45.5489C90.3 37.585 83.8439 31.1289 75.88 31.1289C67.916 31.1289 61.46 37.585 61.46 45.5489C61.46 53.5129 67.916 59.9689 75.88 59.9689Z" fill="#2E7D32"/>
    <path d="M92.1599 78.4202C87.0099 86.1402 79.5899 100.87 69.3699 108.97C59.9899 116.41 48.1599 120.08 48.1599 120.08L15.6099 81.9602L16.9599 71.5002L48.8799 107.41C49.0099 107.55 49.2099 107.62 49.3999 107.57C68.6299 102.49 77.0799 85.9002 87.1299 70.8402C94.8399 59.2802 106.37 46.9602 121.21 43.1602C122.39 44.4602 121.87 55.3602 120.58 55.7902C107.43 60.1502 99.3599 67.6102 92.1599 78.4202Z" fill="#2E7D32"/>
    <path d="M78.8501 83.5184L81.8701 94.6684C81.8701 94.6684 91.0701 81.2084 92.5601 77.9484L89.2201 67.8984C84.7601 73.4484 78.8501 83.5184 78.8501 83.5184V83.5184Z" fill="#FFC06C"/>
    <path d="M78.0702 17.0119C78.8402 18.1219 80.1902 19.2719 82.3602 19.9419C83.1302 20.1819 83.9402 20.3019 84.7502 20.3019C86.4702 20.3019 87.9102 19.7719 88.8802 19.2819C91.3102 21.7219 94.3502 24.6919 97.2902 27.5719C100.17 30.3919 103.13 33.2919 105.54 35.7019C104.76 36.8919 104.14 38.6919 104.4 41.1219C104.52 42.2419 105.31 43.3819 106.15 44.3119C100.83 47.7319 90.6202 55.3319 80.1502 68.7319C77.9402 71.5619 75.7802 74.7019 73.7002 77.7319C68.5202 85.2719 63.1702 93.0519 56.0502 97.8119C55.2102 96.4419 53.6602 94.7819 50.8902 94.0919C50.2202 93.9219 49.5602 93.8419 48.9302 93.8419C47.1502 93.8419 45.7502 94.5019 44.7502 95.2819L29.6502 77.9219C30.9202 76.9319 32.1102 75.2419 32.2302 72.6319C32.2902 71.4119 31.6402 70.3019 30.9002 69.4619C38.2602 64.0119 46.0302 55.3219 50.2102 49.0819C50.8202 48.1719 51.4502 47.2219 52.1002 46.2419C58.6402 36.3719 67.5002 23.0519 78.0702 17.0119V17.0119ZM78.8602 14.6719C66.1402 20.9719 56.0102 37.3819 48.8002 48.1219C44.0802 55.1519 35.5502 64.3219 28.2002 69.2719C28.2002 69.2719 30.6102 70.9819 30.5302 72.5319C30.3302 76.6919 26.9502 77.3919 26.9502 77.3919L44.7002 97.7919C44.7002 97.7919 46.0002 95.5119 48.9202 95.5119C49.3902 95.5119 49.9102 95.5719 50.4702 95.7119C54.4902 96.7119 55.3002 100.252 55.3002 100.252C66.6402 93.6519 73.4902 79.9819 81.4702 69.7519C92.3002 55.8819 103.07 48.0219 108.9 44.5719C108.9 44.5719 106.22 42.4019 106.07 40.9219C105.66 37.0319 107.86 35.6319 107.86 35.6319C102.71 30.4219 94.2502 22.3119 89.1302 17.1219C89.1302 17.1219 87.2702 18.5819 84.7402 18.5819C84.1402 18.5819 83.5002 18.5019 82.8502 18.3019C79.1702 17.1919 78.8602 14.6719 78.8602 14.6719V14.6719Z" fill="#2E7D32"/>
    <path d="M53.8198 33.3203L44.0898 48.0303L78.8498 83.5203C78.8498 83.5203 84.5298 74.5403 89.2098 67.9003L53.8198 33.3203Z" fill="#FFECB3"/>
    <path opacity="0.68" d="M90.62 72.1211C90.62 72.1211 83.7599 75.6111 81.8899 86.2511C81.1799 90.2711 81.8799 94.6711 81.8799 94.6711L87.5399 85.9611L91.5899 73.8511L90.62 72.1211V72.1211Z" fill="#D69136"/>
    <path d="M88.6501 74.4296C90.6401 72.5196 91.3001 71.9296 97.5201 71.4796C103.66 71.0296 106.48 68.3396 114.24 69.9496C117.52 70.6296 122.72 73.6296 121.4 85.5896C120.9 90.1496 121.02 100.69 123.17 110.24C124.9 117.92 120.17 115.95 118.87 114.88C114.23 111.07 114.03 102.44 114.03 102.44C114.03 102.44 113.59 115.26 108.9 110.73C105.1 107.05 107.01 98.3496 107.01 98.3496C107.01 98.3496 104.55 107.23 100.4 103.69C97.5501 101.26 99.6701 91.7396 99.6701 91.7396C99.6701 91.7396 96.3601 99.5096 93.9001 98.2196C90.1401 96.2596 91.9201 88.2496 91.9201 88.2496C91.9201 88.2496 88.4801 95.8396 86.2401 94.3096C82.9001 92.0296 84.1101 84.9196 84.1101 84.9196C84.1101 84.9196 85.0901 77.8396 88.6501 74.4296V74.4296Z" fill="#E0E0E0"/>
    <path d="M118.34 79.2805C118.34 79.2805 118.82 85.4605 118.39 89.1505C118.12 91.4405 118 93.5405 115.9 93.2305C115.39 93.1505 114.2 92.1605 113.99 88.3505C113.77 84.3105 114.61 78.9705 114.02 78.5705C113.43 78.1605 113.4 85.1705 110.48 89.5605C109.38 91.2105 107.53 91.3905 107.24 87.0405C106.92 82.3105 109.37 76.7105 109.02 76.2305C109.02 76.2305 106.95 78.7805 105.75 82.3905C104.55 86.0005 104.02 87.7005 102.61 86.6605C100.08 84.8005 103.79 77.3905 103.79 77.3905C103.79 77.3905 101.07 79.8205 99.8898 83.2205C99.1398 85.3805 99.5498 88.9305 101.47 89.8305C103.73 90.8905 105.05 89.0005 105.05 89.0005C105.05 89.0005 105.53 95.0505 108.48 94.9205C111.31 94.7905 112.03 91.6005 112.03 91.6005C112.03 91.6005 111.91 94.6805 114.77 96.7905C116.16 97.8205 119.39 97.9905 119.79 93.9105C120.44 87.2905 118.34 79.2805 118.34 79.2805V79.2805Z" fill="#BDBDBD"/>
    <path d="M95.0701 77.1114C94.4601 76.9614 93.5801 79.7114 92.4801 81.2614C92.0601 81.8414 91.1601 83.0314 89.7801 82.9314C88.4001 82.8314 89.4901 78.7714 89.1701 78.9914C88.8501 79.2114 87.5601 81.3814 88.0701 83.9014C88.2101 84.6014 88.9201 85.4314 89.6201 85.5414C92.2401 85.9614 93.3901 82.7414 93.3901 82.7414C93.3901 82.7414 93.0001 86.5914 95.5901 86.9914C98.7201 87.4714 99.3601 82.5414 99.0801 82.3614C98.8001 82.1814 97.7901 85.4614 95.5601 84.0614C93.7301 82.9014 95.6801 77.2714 95.0701 77.1114V77.1114Z" fill="#BDBDBD"/>
    <path d="M15.6099 81.9483L48.0399 119.938C48.0399 119.938 49.4899 117.788 49.8199 114.438C50.1099 111.518 49.0899 107.638 49.0899 107.638L16.9599 71.4883L15.6099 81.9483V81.9483Z" fill="#206022"/>
    <defs>
        <linearGradient id="paint0_linear_9777_50444" x1="81.4266" y1="11.1556" x2="81.4266" y2="11.1556" gradientUnits="userSpaceOnUse">
            <stop stop-color="#43A047"/>
            <stop offset="0.999" stop-color="#66BB6A"/>
        </linearGradient>
    </defs>
</svg>
