<svg width="128" height="128" viewBox="0 0 128 128" fill="none" xmlns="http://www.w3.org/2000/svg">
    <path d="M85.52 121.669C76.89 121.599 63.94 121.259 51.2 120.059C42.43 119.229 33.37 117.919 26.49 114.019C24.55 112.919 22.43 112.649 20.55 112.419C19.75 112.319 19 112.229 18.36 112.079C13.48 110.929 10.07 106.709 10.05 101.819L9.98 69.0686C9.97 64.5386 13.2 60.7486 17.67 60.0486C17.75 60.0386 17.82 60.0186 17.9 59.9986C18.45 59.8186 31.59 55.5386 41.49 47.7986C46.15 44.1586 50.14 38.5486 52.17 32.7986C54.19 27.0686 54.18 20.8186 54.17 15.7986C54.17 12.5586 54.16 8.52859 55.04 7.93859C57.18 6.52859 59.54 5.80859 62.05 5.80859C69.77 5.80859 77.65 12.8586 77.96 20.0386C78.18 25.0186 76.51 30.8986 74.9 36.5786C73 43.3086 71.35 49.1186 72.84 53.0686C73.06 53.6586 73.62 54.0386 74.24 54.0386L81.53 53.7886H81.6C89.76 53.7886 96.4 60.4286 96.41 68.5786L96.46 110.789C96.46 113.699 95.34 116.429 93.28 118.479C92.2727 119.492 91.0744 120.296 89.7544 120.844C88.4345 121.391 87.019 121.672 85.59 121.669H85.52Z" fill="url(#paint0_radial_9777_60607)"/>
    <path d="M62.05 7.30859C68.91 7.30859 76.18 13.7686 76.46 20.0986C76.67 24.8386 75.04 30.5986 73.46 36.1686C71.48 43.1486 69.78 49.1786 71.44 53.5886C71.6553 54.1595 72.0397 54.6511 72.5418 54.9977C73.0439 55.3444 73.6399 55.5296 74.25 55.5286H74.36L81.56 55.2786H81.62C88.95 55.2786 94.92 61.2386 94.93 68.5786L94.98 110.789C94.98 113.289 94.01 115.649 92.24 117.419C90.47 119.189 88.12 120.169 85.61 120.169H85.53C76.93 120.099 64.02 119.759 51.34 118.569C42.74 117.759 33.86 116.479 27.23 112.719C25.03 111.469 22.65 111.179 20.74 110.939C19.98 110.849 19.27 110.759 18.71 110.619C14.51 109.629 11.57 106.009 11.56 101.819L11.48 69.0686C11.47 65.2886 14.17 62.1186 17.9 61.5386C18.05 61.5186 18.21 61.4786 18.35 61.4286C18.91 61.2486 32.29 56.8786 42.4 48.9786C47.27 45.1686 51.45 39.3086 53.57 33.2986C55.68 27.3286 55.67 20.9386 55.66 15.7986C55.66 13.3586 55.65 10.0586 56.07 9.05859C57.8523 7.90953 59.9294 7.30167 62.05 7.30859ZM62.05 4.30859C59.4 4.30859 56.72 5.02859 54.21 6.68859C50.97 8.82859 54.48 21.7086 50.75 32.2886C48.51 38.6386 44.24 43.7386 40.56 46.6086C30.76 54.2686 17.44 58.5686 17.44 58.5686C12.27 59.3786 8.47 63.8386 8.48 69.0786L8.56 101.829C8.58 107.469 12.53 112.239 18.02 113.539C20.24 114.059 23.27 113.919 25.75 115.329C32.38 119.089 40.88 120.589 51.06 121.549C63.66 122.739 76.46 123.089 85.51 123.169H85.61C92.44 123.169 97.99 117.629 97.98 110.789L97.93 68.5786C97.92 59.5686 90.61 52.2886 81.62 52.2886H81.5L74.26 52.5386C71.76 45.8986 79.95 30.9586 79.47 19.9686C79.12 12.1586 70.79 4.30859 62.05 4.30859Z" fill="#EDA600"/>
    <path d="M66.12 62.5003C68 67.5003 68.02 75.3003 66.12 80.1203C63.37 87.0803 56.64 93.1703 48.87 94.2403C46.97 94.5003 48.1 96.2503 49.99 95.9903C58.4 94.8303 69.78 91.4203 72.74 83.8703C80.86 63.1203 71.36 52.2503 67.12 55.4903C65.08 57.0703 65.06 59.6703 66.12 62.5003Z" fill="#EDA600"/>
    <path d="M86.28 69.9208C77.92 69.9208 67.87 68.3708 67.44 60.9608C67.32 58.8408 67.96 57.0608 69.4 55.5308C73.19 51.5108 82.5 49.3008 95.62 49.3008C100.38 49.3008 103.85 49.6108 103.89 49.6108C103.93 49.6108 103.98 49.6208 104.02 49.6208H104.11C104.25 49.6108 104.38 49.6108 104.52 49.6108C108.77 49.6108 112.32 53.4408 112.61 58.3308C112.91 63.3908 109.58 67.7108 105.19 67.9608C105.12 67.9608 105.04 67.9708 104.97 67.9908C104.88 68.0008 95.62 69.9208 86.28 69.9208Z" fill="url(#paint1_radial_9777_60607)"/>
    <path d="M95.6302 50.8008C100.31 50.8008 103.73 51.1008 103.76 51.1008C103.85 51.1108 103.94 51.1108 104.03 51.1108C104.09 51.1108 104.15 51.1108 104.2 51.1008C104.31 51.0908 104.42 51.0908 104.52 51.0908C107.97 51.0908 110.87 54.3008 111.11 58.3908C111.23 60.5108 110.63 62.5208 109.42 64.0608C108.29 65.5008 106.75 66.3408 105.1 66.4408C104.95 66.4508 104.8 66.4708 104.66 66.5008C104.57 66.5208 95.4402 68.4108 86.2802 68.4108C80.9602 68.4108 76.7402 67.7908 73.7502 66.5708C69.6402 64.8908 69.0302 62.5108 68.9402 60.8708C68.8402 59.1608 69.3402 57.7908 70.5002 56.5508C73.9502 52.9008 83.1102 50.8008 95.6302 50.8008ZM95.6302 47.8008C84.2102 47.8008 65.2702 49.5308 65.9402 61.0508C66.4302 69.3708 76.4702 71.4208 86.2802 71.4208C95.8902 71.4208 105.28 69.4508 105.28 69.4508C110.5 69.1408 114.46 64.1208 114.11 58.2308C113.78 52.5308 109.54 48.1008 104.53 48.1008C104.36 48.1008 104.2 48.1008 104.03 48.1108C104.03 48.1108 100.52 47.8008 95.6302 47.8008Z" fill="#EDA600"/>
    <path d="M92.5501 88.9486C81.6401 88.9486 68.6401 87.1186 68.6401 78.3786C68.6401 69.6386 81.6401 67.8086 92.5501 67.8086C101.8 67.8086 110.23 69.1586 110.31 69.1686C110.39 69.1786 110.47 69.1886 110.55 69.1886C114.96 69.1886 118.03 73.8486 118.03 78.0286C118.03 82.4386 114.76 87.5586 110.55 87.5586C110.47 87.5586 110.39 87.5686 110.31 87.5786C110.22 87.5986 101.79 88.9486 92.5501 88.9486Z" fill="url(#paint2_radial_9777_60607)"/>
    <path d="M92.5501 69.3203C101.67 69.3203 109.99 70.6503 110.07 70.6603C110.23 70.6903 110.39 70.7003 110.55 70.7003C113.97 70.7003 116.53 74.5803 116.53 78.0403C116.53 81.6503 113.77 86.0703 110.55 86.0703C110.39 86.0703 110.23 86.0803 110.07 86.1103C109.99 86.1203 101.66 87.4503 92.5501 87.4503C85.7201 87.4503 80.2901 86.7303 76.4001 85.3003C70.7901 83.2403 70.1401 80.3603 70.1401 78.3803C70.1401 76.3903 70.7901 73.5203 76.4001 71.4603C80.2801 70.0403 85.7201 69.3203 92.5501 69.3203ZM92.5501 66.3203C80.6201 66.3203 67.1401 68.5103 67.1401 78.3903C67.1401 88.2703 80.6101 90.4603 92.5501 90.4603C102.04 90.4603 110.55 89.0803 110.55 89.0803C115.71 89.0803 119.53 83.1703 119.53 78.0503C119.53 72.9303 115.71 67.7103 110.55 67.7103C110.55 67.7003 102.03 66.3203 92.5501 66.3203Z" fill="#EDA600"/>
    <path d="M100.86 122.188C96.6499 122.188 75.3199 121.858 68.8599 115.388C67.7299 114.258 67.1899 113.038 67.1899 111.658C67.2099 106.408 76.1999 103.398 91.8499 103.398C97.4299 103.398 101.75 103.798 101.8 103.798C101.84 103.798 101.89 103.808 101.93 103.808C104.27 103.818 106.48 104.768 108.13 106.498C109.8 108.238 110.71 110.558 110.71 113.018C110.69 118.068 106.74 122.168 101.9 122.168C101.83 122.188 101.48 122.188 100.86 122.188Z" fill="url(#paint3_radial_9777_60607)"/>
    <path d="M91.8602 104.91C97.3502 104.91 101.62 105.3 101.66 105.31C101.75 105.32 101.84 105.32 101.93 105.32C103.86 105.33 105.68 106.12 107.05 107.55C108.45 109.01 109.22 110.96 109.21 113.03C109.2 117.25 105.92 120.69 101.87 120.69H101.8C101.78 120.69 101.44 120.7 100.85 120.7C82.7002 120.7 72.8402 117.27 69.9102 114.34C68.8002 113.23 68.6802 112.29 68.6802 111.68C68.7102 107.5 77.5802 104.91 91.8602 104.91ZM91.8602 101.91C81.1402 101.91 65.7202 103.35 65.7002 111.66C65.6602 123.12 95.0002 123.69 100.86 123.69C101.51 123.69 101.87 123.68 101.87 123.68H101.9C107.58 123.68 112.19 118.92 112.21 113.03C112.23 107.13 107.63 102.33 101.94 102.31C101.94 102.32 97.5702 101.91 91.8602 101.91Z" fill="#EDA600"/>
    <path d="M97.12 106.32C88.13 106.32 67.23 105.3 67.23 95.8505C67.23 87.9105 82.3 86.7305 91.29 86.7305C99.24 86.7305 106.09 87.6105 106.16 87.6205C106.22 87.6305 106.29 87.6305 106.35 87.6305C110.52 87.6305 115.38 89.6905 115.38 95.5005C115.38 101 111.08 106 106.35 106H106.23C106.19 106.01 102.34 106.32 97.12 106.32Z" fill="url(#paint4_radial_9777_60607)"/>
    <path d="M91.29 85.2383V88.2383C99.12 88.2383 105.9 89.1083 105.96 89.1183C106.09 89.1383 106.22 89.1383 106.35 89.1383C109.99 89.1383 113.88 90.8083 113.88 95.5083C113.88 100.138 110.22 104.508 106.35 104.508C106.27 104.508 106.19 104.508 106.1 104.518C106.06 104.518 102.27 104.828 97.11 104.828C91.66 104.828 83.87 104.478 77.7 102.838C71.75 101.248 68.73 98.8983 68.73 95.8683C68.73 94.9383 68.73 92.1083 75.07 90.1183C79.02 88.8783 84.47 88.2483 91.28 88.2483L91.29 85.2383ZM91.29 85.2383C79.73 85.2383 65.73 87.0583 65.73 95.8583C65.73 106.228 85.13 107.828 97.12 107.828C102.48 107.828 106.35 107.508 106.35 107.508C111.99 107.508 116.88 101.678 116.88 95.5083C116.88 89.3383 111.99 86.1383 106.35 86.1383C106.35 86.1383 99.42 85.2383 91.29 85.2383Z" fill="#EDA600"/>
    <path d="M27.79 114.9L23 96L21 113L27.79 114.9Z" fill="#EDA600"/>
    <defs>
        <radialGradient id="paint0_radial_9777_60607" cx="0" cy="0" r="1" gradientUnits="userSpaceOnUse" gradientTransform="translate(51.7691 31.3996) rotate(90.1249) scale(87.0392 68.526)">
            <stop offset="0.6" stop-color="#FFCA28"/>
            <stop offset="1" stop-color="#FFB300"/>
        </radialGradient>
        <radialGradient id="paint1_radial_9777_60607" cx="0" cy="0" r="1" gradientUnits="userSpaceOnUse" gradientTransform="translate(102.952 58.738) rotate(176.727) scale(28.2717 13.8338)">
            <stop offset="0.599" stop-color="#FFCA28"/>
            <stop offset="1" stop-color="#FFB300"/>
        </radialGradient>
        <radialGradient id="paint2_radial_9777_60607" cx="0" cy="0" r="1" gradientUnits="userSpaceOnUse" gradientTransform="translate(107.419 78.1281) rotate(-179.937) scale(31.8182 12.7596)">
            <stop offset="0.599" stop-color="#FFCA28"/>
            <stop offset="1" stop-color="#FFB300"/>
        </radialGradient>
        <radialGradient id="paint3_radial_9777_60607" cx="0" cy="0" r="1" gradientUnits="userSpaceOnUse" gradientTransform="translate(101.214 112.593) rotate(-179.726) scale(26.7212 13.9117)">
            <stop offset="0.599" stop-color="#FFCA28"/>
            <stop offset="1" stop-color="#FFB300"/>
        </radialGradient>
        <radialGradient id="paint4_radial_9777_60607" cx="0" cy="0" r="1" gradientUnits="userSpaceOnUse" gradientTransform="translate(105.021 96.3001) rotate(-179.934) scale(30.4439 12.663)">
            <stop offset="0.599" stop-color="#FFCA28"/>
            <stop offset="1" stop-color="#FFB300"/>
        </radialGradient>
    </defs>
</svg>
